<?xml version="1.0" encoding="utf-8"?>
<!-- Generator: Adobe Illustrator 24.0.1, SVG Export Plug-In . SVG Version: 6.00 Build 0)  -->
<svg version="1.1" id="_x30_" xmlns="http://www.w3.org/2000/svg" xmlns:xlink="http://www.w3.org/1999/xlink" x="0px" y="0px"
	 viewBox="0 0 200 200" style="enable-background:new 0 0 200 200;" xml:space="preserve">
<style type="text/css">
	.st0{fill:#54E283;}
</style>
<path id="_x30__1_" class="st0" d="M100,0C45,0,0,45,0,100s45,100,100,100s100-45,100-100S155,0,100,0z M100,187.5
	c-48.8,0-87.5-40-87.5-87.5c0-48.8,40-87.5,87.5-87.5c48.8,0,87.5,38.8,87.5,87.5S148.8,187.5,100,187.5z M135,66.3l-46.3,46.3
	L65,88.8c-3.8-3.8-10-3.8-15,0c-2.5,5-2.5,11.3,1.3,15l30,30c3.8,3.8,10,3.8,13.8,0l10-10L148.8,80c3.8-3.8,5-10,0-13.8
	C145,62.5,138.8,62.5,135,66.3z"/>
</svg>
